<svg width="388" height="342" viewBox="0 0 388 342" fill="none" xmlns="http://www.w3.org/2000/svg">
<g clip-path="url(#clip0_6_3)">
<g clip-path="url(#clip1_6_3)">
<g filter="url(#filter0_d_6_3)">
<rect x="24" y="35" width="297" height="297" rx="45" fill="white"/>
<rect x="35" y="46" width="275" height="275" rx="34" stroke="black" stroke-width="22"/>
</g>
<circle cx="172" cy="191" r="55" fill="white" stroke="black" stroke-width="10"/>
<circle cx="172" cy="190" r="13" fill="black"/>
<path d="M174.5 141V138.5H169.5V141H174.5ZM169.5 141V164H174.5V141H169.5Z" fill="black"/>
<path d="M174.5 218V215.5H169.5V218H174.5ZM169.5 218V241H174.5V218H169.5Z" fill="black"/>
<path d="M222 193.5H224.5V188.5H222V193.5ZM222 188.5H199V193.5H222V188.5Z" fill="black"/>
<path d="M138.412 153.877L136.644 152.11L133.109 155.645L134.876 157.413L138.412 153.877ZM134.876 157.413L151.14 173.676L154.676 170.141L138.412 153.877L134.876 157.413Z" fill="black"/>
<path d="M209.123 157.412L210.89 155.644L207.355 152.109L205.587 153.876L209.123 157.412ZM205.587 153.876L189.324 170.14L192.859 173.676L209.123 157.412L205.587 153.876Z" fill="black"/>
<path d="M145 193.5H147.5V188.5H145V193.5ZM145 188.5H122V193.5H145V188.5Z" fill="black"/>
<path d="M192.86 208.324L191.092 206.556L187.557 210.092L189.324 211.859L192.86 208.324ZM189.324 211.859L205.588 228.123L209.124 224.587L192.86 208.324L189.324 211.859Z" fill="black"/>
<path d="M154.676 211.86L156.444 210.092L152.908 206.557L151.141 208.324L154.676 211.86ZM151.141 208.324L134.877 224.588L138.413 228.124L154.676 211.86L151.141 208.324Z" fill="black"/>
<path d="M182.459 239.736L182.721 240.701L184.651 240.176L184.388 239.211L182.459 239.736ZM184.388 239.211L181.351 228.051L179.421 228.576L182.459 239.736L184.388 239.211Z" fill="black"/>
<path d="M192.954 236.212L193.422 237.095L195.189 236.157L194.72 235.274L192.954 236.212ZM194.72 235.274L189.299 225.058L187.532 225.995L192.954 236.212L194.72 235.274Z" fill="black"/>
<path d="M213.497 218.202L214.363 218.703L215.365 216.972L214.499 216.471L213.497 218.202ZM214.499 216.471L204.49 210.677L203.488 212.408L213.497 218.202L214.499 216.471Z" fill="black"/>
<path d="M188.248 143.776L188.538 142.819L186.624 142.239L186.334 143.196L188.248 143.776ZM186.334 143.196L182.977 154.263L184.891 154.844L188.248 143.776L186.334 143.196Z" fill="black"/>
<path d="M121.264 203.459L120.299 203.721L120.824 205.651L121.789 205.388L121.264 203.459ZM121.789 205.388L133.371 202.236L132.846 200.306L121.264 203.459L121.789 205.388Z" fill="black"/>
<path d="M125.27 214.31L124.386 214.778L125.324 216.545L126.207 216.076L125.27 214.31ZM126.207 216.076L136.81 210.45L135.872 208.683L125.27 214.31L126.207 216.076Z" fill="black"/>
<path d="M144.486 235.473L143.985 236.338L145.716 237.34L146.217 236.475L144.486 235.473ZM146.217 236.475L152.231 226.086L150.5 225.085L144.486 235.473L146.217 236.475Z" fill="black"/>
<path d="M220.81 207.026L221.767 207.316L222.347 205.402L221.39 205.112L220.81 207.026ZM221.39 205.112L209.904 201.628L209.324 203.541L220.81 207.026L221.39 205.112Z" fill="black"/>
<path d="M159.072 153.807L159.335 154.772L161.265 154.247L161.002 153.282L159.072 153.807ZM161.002 153.282L157.965 142.123L156.035 142.648L159.072 153.807L161.002 153.282Z" fill="black"/>
<path d="M151.208 157.548L151.677 158.431L153.443 157.494L152.975 156.61L151.208 157.548ZM152.975 156.61L147.553 146.394L145.787 147.332L151.208 157.548L152.975 156.61Z" fill="black"/>
<path d="M136.424 173.588L137.289 174.089L138.291 172.358L137.426 171.857L136.424 173.588ZM137.426 171.857L127.416 166.064L126.414 167.794L136.424 173.588L137.426 171.857Z" fill="black"/>
<path d="M162.397 228.996L162.688 228.039L160.774 227.458L160.484 228.415L162.397 228.996ZM160.484 228.415L157.126 239.483L159.04 240.063L162.397 228.996L160.484 228.415Z" fill="black"/>
<path d="M210.445 179.187L209.48 179.45L210.005 181.38L210.97 181.117L210.445 179.187ZM210.97 181.117L222.552 177.965L222.027 176.035L210.445 179.187L210.97 181.117Z" fill="black"/>
<path d="M206.91 170.984L206.027 171.453L206.964 173.22L207.848 172.751L206.91 170.984ZM207.848 172.751L218.45 167.124L217.513 165.358L206.91 170.984L207.848 172.751Z" fill="black"/>
<path d="M190.788 155.483L190.287 156.348L192.018 157.35L192.519 156.485L190.788 155.483ZM192.519 156.485L198.532 146.096L196.801 145.094L190.788 155.483L192.519 156.485Z" fill="black"/>
<path d="M132.365 180.197L133.322 180.487L133.903 178.573L132.946 178.283L132.365 180.197ZM132.946 178.283L121.459 174.799L120.879 176.713L132.365 180.197L132.946 178.283Z" fill="black"/>
</g>
<g filter="url(#filter1_d_6_3)">
<path d="M142.679 69.8698L131.923 79.5747C129.756 81.5297 129.689 84.9869 131.773 87.2966L158.187 116.571C160.271 118.88 163.717 119.168 165.884 117.213L177.81 106.452C179.977 104.497 180.044 101.04 177.96 98.7302C173.255 93.5152 170.621 90.4133 174.695 84.158C178.172 78.8192 190.797 67.4983 197.814 75.275L206.167 84.5331C208.214 86.8017 211.575 87.1194 213.747 85.2774C213.786 85.2441 213.825 85.21 213.864 85.1753C219.256 80.3097 226.114 75.6944 230.603 69.9723C232.449 67.6197 231.925 63.934 229.425 61.7844C224.423 57.4825 218.246 51.1859 221.257 48.4694C226.046 44.1482 229.492 40.8676 235.438 36.8787C246.238 29.6337 263.316 25.0328 275.252 22.5109C276.973 22.1473 276.636 19.0779 274.852 18.9331C274.824 18.9308 274.817 18.9307 274.789 18.9268C273.896 18.8044 244.357 14.7974 226.122 17.9856C214.175 20.0745 207.202 21.4663 196.636 27.0776C183.101 34.2658 171.927 43.479 168.035 53.7501C164.142 64.0212 171.88 70.0406 164.862 73.2604C160.653 75.1912 155.599 74.7156 152.064 71.1596C149.46 68.5392 145.253 67.5476 142.679 69.8698Z" fill="white"/>
<path d="M213.864 85.1753C213.825 85.21 213.786 85.2441 213.747 85.2774M213.864 85.1753L213.747 85.2774M213.864 85.1753C219.256 80.3097 226.114 75.6944 230.603 69.9723M213.747 85.2774C211.575 87.1194 208.214 86.8017 206.167 84.5331L197.814 75.275C190.797 67.4983 178.172 78.8192 174.695 84.158C170.621 90.4133 173.255 93.5152 177.96 98.7302C180.044 101.04 179.977 104.497 177.81 106.452L165.884 117.213C163.717 119.168 160.271 118.88 158.187 116.571L131.773 87.2966C129.689 84.9869 129.756 81.5297 131.923 79.5747L142.679 69.8698C145.253 67.5476 149.46 68.5392 152.064 71.1596C155.599 74.7156 160.653 75.1912 164.862 73.2604C171.88 70.0406 164.142 64.0212 168.035 53.7501C171.927 43.479 183.101 34.2658 196.636 27.0776C207.202 21.4663 214.175 20.0745 226.122 17.9856C244.357 14.7974 273.896 18.8044 274.789 18.9268C274.817 18.9307 274.824 18.9308 274.852 18.9331C276.636 19.0779 276.973 22.1473 275.252 22.5109C263.316 25.0328 246.238 29.6337 235.438 36.8787C229.492 40.8676 226.046 44.1482 221.257 48.4694C218.246 51.1859 224.423 57.4825 229.425 61.7844C231.925 63.934 232.449 67.6197 230.603 69.9723M213.747 85.2774L265.583 142.726M230.603 69.9723L282.487 127.474M282.487 127.474L283.565 126.5C285.732 124.545 289.178 124.832 291.262 127.142L374.146 219.001C376.23 221.311 376.163 224.768 373.997 226.723L354.935 243.923C352.768 245.878 349.322 245.59 347.238 243.281L264.354 151.421C262.27 149.112 262.337 145.654 264.504 143.699L265.583 142.726M282.487 127.474C282.487 127.474 278.571 133.42 275.235 136.43C271.898 139.441 265.583 142.726 265.583 142.726" stroke="#D9D9D9" stroke-width="9" stroke-linecap="round" stroke-linejoin="round"/>
</g>
</g>
<defs>
<filter id="filter0_d_6_3" x="20" y="35" width="305" height="305" filterUnits="userSpaceOnUse" color-interpolation-filters="sRGB">
<feFlood flood-opacity="0" result="BackgroundImageFix"/>
<feColorMatrix in="SourceAlpha" type="matrix" values="0 0 0 0 0 0 0 0 0 0 0 0 0 0 0 0 0 0 127 0" result="hardAlpha"/>
<feOffset dy="4"/>
<feGaussianBlur stdDeviation="2"/>
<feComposite in2="hardAlpha" operator="out"/>
<feColorMatrix type="matrix" values="0 0 0 0 0 0 0 0 0 0 0 0 0 0 0 0 0 0 0.25 0"/>
<feBlend mode="normal" in2="BackgroundImageFix" result="effect1_dropShadow_6_3"/>
<feBlend mode="normal" in="SourceGraphic" in2="effect1_dropShadow_6_3" result="shape"/>
</filter>
<filter id="filter1_d_6_3" x="121.754" y="12.2563" width="262.412" height="245.467" filterUnits="userSpaceOnUse" color-interpolation-filters="sRGB">
<feFlood flood-opacity="0" result="BackgroundImageFix"/>
<feColorMatrix in="SourceAlpha" type="matrix" values="0 0 0 0 0 0 0 0 0 0 0 0 0 0 0 0 0 0 127 0" result="hardAlpha"/>
<feOffset dy="4"/>
<feGaussianBlur stdDeviation="2"/>
<feComposite in2="hardAlpha" operator="out"/>
<feColorMatrix type="matrix" values="0 0 0 0 0 0 0 0 0 0 0 0 0 0 0 0 0 0 0.25 0"/>
<feBlend mode="normal" in2="BackgroundImageFix" result="effect1_dropShadow_6_3"/>
<feBlend mode="normal" in="SourceGraphic" in2="effect1_dropShadow_6_3" result="shape"/>
</filter>
<clipPath id="clip0_6_3">
<rect width="388" height="342" fill="white"/>
</clipPath>
<clipPath id="clip1_6_3">
<rect width="297" height="297" fill="white" transform="translate(24 35)"/>
</clipPath>
</defs>
</svg>
